Eurovision Song Contest 2012 Sweden Loreen Euphoria 1080i MPEG2 36Mbps [mixman].ts
    Format : MPEG-TS
    File size : 841 MiB
    Duration : 3mn 11s
    Overall bit rate : 36.8 Mbps
 
 Video #1001
    ID : 1001 (0x3E9)
    Menu ID : 1 (0x1)
    Format : MPEG Video
    Format version : Version 2
    Format profile : Main@High
    Format settings, BVOP : Yes
    Format settings, Matrix : Default
    Format settings, GOP : M=3, N=12
    Codec ID : 2
    Duration : 3mn 11s
    Bit rate : 34.6 Mbps
    Maximum bit rate : 35.5 Mbps
    Width : 1 920 pixels
    Height : 1 080 pixels
    Display aspect ratio : 16:9
    Frame rate : 25.000 fps
    Color space : YUV
    Chroma subsampling : 4:2:0
    Bit depth : 8 bits
    Scan type : Interlaced
    Scan order : Top Field First
    Compression mode : Lossy
    Bits/(Pixel*Frame) : 0.667
    Stream size : 790 MiB (94%)
    Color primaries : BT.709
    Transfer characteristics : BT.709
    Matrix coefficients : BT.709
 
 Audio #1002
    ID : 1002 (0x3EA)
    Menu ID : 1 (0x1)
    Format : MPEG Audio
    Format version : Version 1
    Format profile : Layer 2
    Codec ID : 3
    Duration : 3mn 11s
    Bit rate mode : Constant
    Bit rate : 384 Kbps
    Channel(s) : 2 channels
    Sampling rate : 48.0 KHz
    Compression mode : Lossy
    Stream size : 8.78 MiB (1%)
